<mxfile host="app.diagrams.net" modified="2023-12-10T16:51:36.988Z" agent="Mozilla/5.0 (Windows NT 10.0; Win64; x64) AppleWebKit/537.36 (KHTML, like Gecko) Chrome/120.0.0.0 Safari/537.36" etag="Q471B4o1mpgBAtcwSLoW" version="22.1.7" type="device">
  <diagram name="Page-1" id="-TRlf1c7pfUTKO69ILGP">
    <mxGraphModel dx="2093" dy="960" grid="1" gridSize="10" guides="1" tooltips="1" connect="1" arrows="1" fold="1" page="1" pageScale="1" pageWidth="850" pageHeight="1100" math="0" shadow="0">
      <root>
        <mxCell id="0" />
        <mxCell id="1" parent="0" />
        <mxCell id="pEIpLnByIlta-qjDtc67-6" style="edgeStyle=orthogonalEdgeStyle;rounded=0;orthogonalLoop=1;jettySize=auto;html=1;entryX=0.5;entryY=0;entryDx=0;entryDy=0;" edge="1" parent="1" source="pEIpLnByIlta-qjDtc67-1" target="pEIpLnByIlta-qjDtc67-4">
          <mxGeometry relative="1" as="geometry" />
        </mxCell>
        <mxCell id="pEIpLnByIlta-qjDtc67-7" value="Prompt&lt;br&gt;Aesthetic Score&lt;br&gt;Aesthetic Weight&lt;br&gt;Number Of Images" style="edgeLabel;html=1;align=center;verticalAlign=middle;resizable=0;points=[];" vertex="1" connectable="0" parent="pEIpLnByIlta-qjDtc67-6">
          <mxGeometry x="-0.4541" relative="1" as="geometry">
            <mxPoint y="13" as="offset" />
          </mxGeometry>
        </mxCell>
        <mxCell id="pEIpLnByIlta-qjDtc67-1" value="Start" style="ellipse;whiteSpace=wrap;html=1;" vertex="1" parent="1">
          <mxGeometry x="30" y="200" width="60" height="40" as="geometry" />
        </mxCell>
        <mxCell id="pEIpLnByIlta-qjDtc67-8" style="edgeStyle=orthogonalEdgeStyle;rounded=0;orthogonalLoop=1;jettySize=auto;html=1;entryX=0;entryY=0.5;entryDx=0;entryDy=0;" edge="1" parent="1" source="pEIpLnByIlta-qjDtc67-4" target="pEIpLnByIlta-qjDtc67-5">
          <mxGeometry relative="1" as="geometry" />
        </mxCell>
        <mxCell id="pEIpLnByIlta-qjDtc67-9" value="Image Links" style="edgeLabel;html=1;align=center;verticalAlign=middle;resizable=0;points=[];" vertex="1" connectable="0" parent="pEIpLnByIlta-qjDtc67-8">
          <mxGeometry x="-0.0257" relative="1" as="geometry">
            <mxPoint x="-4" as="offset" />
          </mxGeometry>
        </mxCell>
        <mxCell id="pEIpLnByIlta-qjDtc67-4" value="Retrieve Images Links" style="rounded=1;whiteSpace=wrap;html=1;" vertex="1" parent="1">
          <mxGeometry y="320" width="120" height="60" as="geometry" />
        </mxCell>
        <mxCell id="pEIpLnByIlta-qjDtc67-11" style="edgeStyle=orthogonalEdgeStyle;rounded=0;orthogonalLoop=1;jettySize=auto;html=1;" edge="1" parent="1" source="pEIpLnByIlta-qjDtc67-5" target="pEIpLnByIlta-qjDtc67-10">
          <mxGeometry relative="1" as="geometry" />
        </mxCell>
        <mxCell id="pEIpLnByIlta-qjDtc67-12" value="Images" style="edgeLabel;html=1;align=center;verticalAlign=middle;resizable=0;points=[];" vertex="1" connectable="0" parent="pEIpLnByIlta-qjDtc67-11">
          <mxGeometry x="0.2429" y="1" relative="1" as="geometry">
            <mxPoint x="1" y="13" as="offset" />
          </mxGeometry>
        </mxCell>
        <mxCell id="pEIpLnByIlta-qjDtc67-5" value="Retrieve Images From Links" style="rounded=1;whiteSpace=wrap;html=1;" vertex="1" parent="1">
          <mxGeometry x="230" y="320" width="120" height="60" as="geometry" />
        </mxCell>
        <mxCell id="pEIpLnByIlta-qjDtc67-14" style="edgeStyle=orthogonalEdgeStyle;rounded=0;orthogonalLoop=1;jettySize=auto;html=1;" edge="1" parent="1" source="pEIpLnByIlta-qjDtc67-10" target="pEIpLnByIlta-qjDtc67-13">
          <mxGeometry relative="1" as="geometry">
            <Array as="points">
              <mxPoint x="290" y="130" />
            </Array>
          </mxGeometry>
        </mxCell>
        <mxCell id="pEIpLnByIlta-qjDtc67-16" value="Cropped Images Of &lt;br&gt;Individual People" style="edgeLabel;html=1;align=center;verticalAlign=middle;resizable=0;points=[];" vertex="1" connectable="0" parent="pEIpLnByIlta-qjDtc67-14">
          <mxGeometry x="-0.2043" relative="1" as="geometry">
            <mxPoint x="-18" as="offset" />
          </mxGeometry>
        </mxCell>
        <mxCell id="pEIpLnByIlta-qjDtc67-26" style="edgeStyle=orthogonalEdgeStyle;rounded=0;orthogonalLoop=1;jettySize=auto;html=1;entryX=0.5;entryY=1;entryDx=0;entryDy=0;" edge="1" parent="1" source="pEIpLnByIlta-qjDtc67-10" target="pEIpLnByIlta-qjDtc67-22">
          <mxGeometry relative="1" as="geometry">
            <Array as="points">
              <mxPoint x="380" y="220" />
              <mxPoint x="380" y="420" />
              <mxPoint x="485" y="420" />
            </Array>
          </mxGeometry>
        </mxCell>
        <mxCell id="pEIpLnByIlta-qjDtc67-27" value="Distance Between Centers&lt;br&gt;Space Taken Up" style="edgeLabel;html=1;align=center;verticalAlign=middle;resizable=0;points=[];" vertex="1" connectable="0" parent="pEIpLnByIlta-qjDtc67-26">
          <mxGeometry x="-0.5706" relative="1" as="geometry">
            <mxPoint y="149" as="offset" />
          </mxGeometry>
        </mxCell>
        <mxCell id="pEIpLnByIlta-qjDtc67-10" value="YOLO Detect Person" style="rounded=1;whiteSpace=wrap;html=1;" vertex="1" parent="1">
          <mxGeometry x="230" y="190" width="120" height="60" as="geometry" />
        </mxCell>
        <mxCell id="pEIpLnByIlta-qjDtc67-20" style="edgeStyle=orthogonalEdgeStyle;rounded=0;orthogonalLoop=1;jettySize=auto;html=1;" edge="1" parent="1" source="pEIpLnByIlta-qjDtc67-13" target="pEIpLnByIlta-qjDtc67-19">
          <mxGeometry relative="1" as="geometry" />
        </mxCell>
        <mxCell id="pEIpLnByIlta-qjDtc67-21" value="Dictionary Containing Images&lt;br&gt;And Respective Metrics" style="edgeLabel;html=1;align=center;verticalAlign=middle;resizable=0;points=[];" vertex="1" connectable="0" parent="pEIpLnByIlta-qjDtc67-20">
          <mxGeometry x="-0.15" y="1" relative="1" as="geometry">
            <mxPoint x="51" y="1" as="offset" />
          </mxGeometry>
        </mxCell>
        <mxCell id="pEIpLnByIlta-qjDtc67-23" style="edgeStyle=orthogonalEdgeStyle;rounded=0;orthogonalLoop=1;jettySize=auto;html=1;entryX=0.5;entryY=0;entryDx=0;entryDy=0;" edge="1" parent="1" source="pEIpLnByIlta-qjDtc67-13" target="pEIpLnByIlta-qjDtc67-22">
          <mxGeometry relative="1" as="geometry">
            <mxPoint x="520" y="280" as="targetPoint" />
            <Array as="points">
              <mxPoint x="600" y="130" />
              <mxPoint x="600" y="240" />
              <mxPoint x="485" y="240" />
            </Array>
          </mxGeometry>
        </mxCell>
        <mxCell id="pEIpLnByIlta-qjDtc67-25" value="Dictionary Containing Images&lt;br style=&quot;border-color: var(--border-color);&quot;&gt;And Respective Metrics" style="edgeLabel;html=1;align=center;verticalAlign=middle;resizable=0;points=[];" vertex="1" connectable="0" parent="pEIpLnByIlta-qjDtc67-23">
          <mxGeometry x="0.1071" y="-1" relative="1" as="geometry">
            <mxPoint x="34" y="1" as="offset" />
          </mxGeometry>
        </mxCell>
        <mxCell id="pEIpLnByIlta-qjDtc67-13" value="Deep Face Feature Estimation" style="rounded=1;whiteSpace=wrap;html=1;" vertex="1" parent="1">
          <mxGeometry x="425" y="100" width="120" height="60" as="geometry" />
        </mxCell>
        <mxCell id="pEIpLnByIlta-qjDtc67-30" style="edgeStyle=orthogonalEdgeStyle;rounded=0;orthogonalLoop=1;jettySize=auto;html=1;entryX=0.5;entryY=0;entryDx=0;entryDy=0;" edge="1" parent="1" source="pEIpLnByIlta-qjDtc67-19" target="pEIpLnByIlta-qjDtc67-28">
          <mxGeometry relative="1" as="geometry" />
        </mxCell>
        <mxCell id="pEIpLnByIlta-qjDtc67-19" value="Age/Race/Gender/Emotion Graphs &amp;amp; Metrics" style="rounded=1;whiteSpace=wrap;html=1;" vertex="1" parent="1">
          <mxGeometry x="790" y="100" width="160" height="60" as="geometry" />
        </mxCell>
        <mxCell id="pEIpLnByIlta-qjDtc67-29" style="edgeStyle=orthogonalEdgeStyle;rounded=0;orthogonalLoop=1;jettySize=auto;html=1;entryX=0;entryY=0.5;entryDx=0;entryDy=0;" edge="1" parent="1" source="pEIpLnByIlta-qjDtc67-22" target="pEIpLnByIlta-qjDtc67-28">
          <mxGeometry relative="1" as="geometry">
            <Array as="points" />
          </mxGeometry>
        </mxCell>
        <mxCell id="pEIpLnByIlta-qjDtc67-22" value="Space Taken Up/ Distance Between Center Graphs" style="rounded=1;whiteSpace=wrap;html=1;" vertex="1" parent="1">
          <mxGeometry x="425" y="320" width="120" height="60" as="geometry" />
        </mxCell>
        <mxCell id="pEIpLnByIlta-qjDtc67-28" value="Insights / Conslusion" style="rounded=1;whiteSpace=wrap;html=1;" vertex="1" parent="1">
          <mxGeometry x="810" y="320" width="120" height="60" as="geometry" />
        </mxCell>
      </root>
    </mxGraphModel>
  </diagram>
</mxfile>
